<svg width="800" height="600" xmlns="http://www.w3.org/2000/svg">
  <!-- Background -->
  <rect width="800" height="600" fill="#f8fafc" />
  
  <!-- Header -->
  <rect x="50" y="50" width="700" height="80" rx="10" fill="#4f46e5" />
  <text x="100" y="100" font-family="Arial" font-size="30" fill="white">E-Commerce Platform</text>
  <circle cx="650" cy="90" r="20" fill="white" />
  <text x="645" y="98" font-family="Arial" font-size="24" fill="#4f46e5">🛒</text>
  
  <!-- Product Grid -->
  <rect x="50" y="160" width="220" height="200" rx="10" fill="white" stroke="#e2e8f0" stroke-width="2" />
  <rect x="290" y="160" width="220" height="200" rx="10" fill="white" stroke="#e2e8f0" stroke-width="2" />
  <rect x="530" y="160" width="220" height="200" rx="10" fill="white" stroke="#e2e8f0" stroke-width="2" />
  
  <!-- Product Images -->
  <rect x="70" y="180" width="180" height="120" rx="5" fill="#e2e8f0" />
  <rect x="310" y="180" width="180" height="120" rx="5" fill="#e2e8f0" />
  <rect x="550" y="180" width="180" height="120" rx="5" fill="#e2e8f0" />
  
  <!-- Product Titles -->
  <rect x="70" y="310" width="140" height="20" rx="5" fill="#e2e8f0" />
  <rect x="310" y="310" width="140" height="20" rx="5" fill="#e2e8f0" />
  <rect x="550" y="310" width="140" height="20" rx="5" fill="#e2e8f0" />
  
  <!-- Product Prices -->
  <rect x="70" y="340" width="80" height="20" rx="5" fill="#4f46e5" opacity="0.2" />
  <rect x="310" y="340" width="80" height="20" rx="5" fill="#4f46e5" opacity="0.2" />
  <rect x="550" y="340" width="80" height="20" rx="5" fill="#4f46e5" opacity="0.2" />
  
  <!-- Featured Section -->
  <rect x="50" y="390" width="700" height="160" rx="10" fill="white" stroke="#e2e8f0" stroke-width="2" />
  <rect x="70" y="410" width="300" height="120" rx="5" fill="#e2e8f0" />
  <rect x="390" y="410" width="140" height="20" rx="5" fill="#e2e8f0" />
  <rect x="390" y="440" width="340" height="60" rx="5" fill="#e2e8f0" opacity="0.5" />
  <rect x="390" y="510" width="120" height="30" rx="15" fill="#4f46e5" />
  <text x="420" y="530" font-family="Arial" font-size="14" fill="white">Shop Now</text>
</svg> 