<svg width="800" height="600" xmlns="http://www.w3.org/2000/svg">
  <!-- Background -->
  <rect width="800" height="600" fill="#fff7ed" />
  
  <!-- Header -->
  <rect x="50" y="50" width="700" height="80" rx="10" fill="#ea580c" />
  <text x="100" y="100" font-family="Arial" font-size="30" fill="white">Student Registration System</text>
  <circle cx="650" cy="90" r="20" fill="white" />
  <text x="645" y="98" font-family="Arial" font-size="24" fill="#ea580c">🎓</text>
  
  <!-- Left Panel - Student List -->
  <rect x="50" y="160" width="300" height="390" rx="10" fill="white" stroke="#e2e8f0" stroke-width="2" />
  <rect x="70" y="180" width="260" height="40" rx="5" fill="#ea580c" opacity="0.1" />
  <text x="90" y="205" font-family="Arial" font-size="16" fill="#ea580c">Student Directory</text>
  
  <!-- Student Entries -->
  <rect x="70" y="230" width="260" height="50" rx="5" fill="#fff7ed" stroke="#e2e8f0" stroke-width="1" />
  <text x="90" y="260" font-family="Arial" font-size="14" fill="#334155">John Smith</text>
  <text x="240" y="260" font-family="Arial" font-size="14" fill="#64748b">ID: 1001</text>
  
  <rect x="70" y="290" width="260" height="50" rx="5" fill="#fff7ed" stroke="#e2e8f0" stroke-width="1" />
  <text x="90" y="320" font-family="Arial" font-size="14" fill="#334155">Sarah Johnson</text>
  <text x="240" y="320" font-family="Arial" font-size="14" fill="#64748b">ID: 1002</text>
  
  <rect x="70" y="350" width="260" height="50" rx="5" fill="#fff7ed" stroke="#e2e8f0" stroke-width="1" />
  <text x="90" y="380" font-family="Arial" font-size="14" fill="#334155">Michael Brown</text>
  <text x="240" y="380" font-family="Arial" font-size="14" fill="#64748b">ID: 1003</text>
  
  <rect x="70" y="410" width="260" height="50" rx="5" fill="#fff7ed" stroke="#e2e8f0" stroke-width="1" />
  <text x="90" y="440" font-family="Arial" font-size="14" fill="#334155">Emily Davis</text>
  <text x="240" y="440" font-family="Arial" font-size="14" fill="#64748b">ID: 1004</text>
  
  <rect x="70" y="470" width="260" height="50" rx="5" fill="#fff7ed" stroke="#e2e8f0" stroke-width="1" />
  <text x="90" y="500" font-family="Arial" font-size="14" fill="#334155">James Wilson</text>
  <text x="240" y="500" font-family="Arial" font-size="14" fill="#64748b">ID: 1005</text>
  
  <!-- Right Panel - Registration Form -->
  <rect x="380" y="160" width="370" height="390" rx="10" fill="white" stroke="#e2e8f0" stroke-width="2" />
  <rect x="400" y="180" width="330" height="40" rx="5" fill="#ea580c" opacity="0.1" />
  <text x="420" y="205" font-family="Arial" font-size="16" fill="#ea580c">Student Registration Form</text>
  
  <!-- Form Fields -->
  <rect x="400" y="240" width="330" height="40" rx="5" fill="#f8fafc" stroke="#e2e8f0" stroke-width="1" />
  <text x="410" y="230" font-family="Arial" font-size="12" fill="#64748b">Full Name</text>
  
  <rect x="400" y="300" width="330" height="40" rx="5" fill="#f8fafc" stroke="#e2e8f0" stroke-width="1" />
  <text x="410" y="290" font-family="Arial" font-size="12" fill="#64748b">Email Address</text>
  
  <rect x="400" y="360" width="330" height="40" rx="5" fill="#f8fafc" stroke="#e2e8f0" stroke-width="1" />
  <text x="410" y="350" font-family="Arial" font-size="12" fill="#64748b">Course Selection</text>
  
  <rect x="400" y="420" width="330" height="40" rx="5" fill="#f8fafc" stroke="#e2e8f0" stroke-width="1" />
  <text x="410" y="410" font-family="Arial" font-size="12" fill="#64748b">Student ID</text>
  
  <!-- Submit Button -->
  <rect x="400" y="480" width="150" height="40" rx="20" fill="#ea580c" />
  <text x="440" y="505" font-family="Arial" font-size="14" fill="white">Register</text>
</svg> 